<svg width="390" height="298" viewBox="0 0 390 298" fill="none" xmlns="http://www.w3.org/2000/svg">
<path d="M376.598 0.109009H13.4024C6.00082 0.109009 0 6.11053 0 13.5147V283.628C0 291.032 6.00082 297.034 13.4024 297.034H376.597C383.999 297.034 389.999 291.032 389.999 283.628V13.5147C390 6.11053 383.999 0.109009 376.598 0.109009Z" fill="#1685FB"/>
<path d="M390 283.625V13.5169C390 6.10743 383.997 0.110474 376.597 0.110474H355.017C362.417 0.110474 368.421 6.10743 368.421 13.5169V283.624C368.421 291.034 362.417 297.031 355.017 297.031H376.597C383.997 297.031 390 291.035 390 283.625Z" fill="#4C60E1"/>
<path d="M390 58.1623V13.5169C390 6.10743 383.997 0.110474 376.597 0.110474H13.4032C6.00311 0.111236 0 6.10819 0 13.5169V58.1623H390Z" fill="#E3F4FF"/>
<path d="M390 58.1623V13.5169C390 6.10743 383.997 0.110474 376.597 0.110474H355.017C362.417 0.110474 368.421 6.10743 368.421 13.5169V58.1623H390Z" fill="#BDDFF4"/>
<path d="M75.4155 34.9677H75.3416C72.0913 34.9677 69.4566 32.3322 69.4566 29.0812C69.4566 25.8301 72.0913 23.1947 75.3416 23.1947C78.5919 23.1947 81.264 25.8301 81.264 29.0812C81.264 32.3322 78.6657 34.9677 75.4155 34.9677Z" fill="#54DDAC"/>
<path d="M56.1326 35.024C52.9105 35.024 50.2826 32.429 50.2491 29.1985C50.2148 25.9474 52.8221 23.2846 56.0724 23.2503C59.2876 23.2069 62.0214 25.824 62.0557 29.0751C62.09 32.3269 59.5192 34.989 56.2689 35.0232L56.195 35.024C56.1745 35.024 56.1531 35.024 56.1326 35.024Z" fill="#FDC142"/>
<path d="M36.9243 35.0796C33.7022 35.0796 31.0736 32.4846 31.0408 29.2541C31.0073 26.0023 33.6146 23.3394 36.8649 23.3059C36.8855 23.3059 36.9068 23.3059 36.9266 23.3059C40.1494 23.3059 42.8139 25.901 42.8474 29.1314C42.881 32.3825 40.3109 35.0453 37.0599 35.0789L36.986 35.0796C36.9662 35.0796 36.9449 35.0796 36.9243 35.0796Z" fill="#FC3E81"/>
<path d="M131.659 35.0797H111.235C107.985 35.0797 105.35 32.4443 105.35 29.1932C105.35 25.9422 107.985 23.3068 111.235 23.3068H131.659C134.91 23.3068 137.544 25.9422 137.544 29.1932C137.544 32.4443 134.91 35.0797 131.659 35.0797Z" fill="#BDDFF4"/>
</svg>
